<svg width="19" height="19" viewBox="0 0 19 19" fill="none" xmlns="http://www.w3.org/2000/svg">
<g id="Card Circle">
<path d="M14.0353 9.73289C14.0353 12.0504 12.1566 13.929 9.8391 13.929C7.52163 13.929 5.64295 12.0504 5.64295 9.73289C5.64295 7.41541 7.52163 5.53673 9.8391 5.53673C12.1566 5.53673 14.0353 7.41541 14.0353 9.73289Z" fill="url(#paint0_linear_410_110)" fill-opacity="0.5"/>
<path fill-rule="evenodd" clip-rule="evenodd" d="M9.83942 18.3251C14.5847 18.3251 18.4315 14.4783 18.4315 9.73297C18.4315 4.98767 14.5847 1.14084 9.83942 1.14084C5.09412 1.14084 1.24729 4.98767 1.24729 9.73297C1.24729 14.4783 5.09412 18.3251 9.83942 18.3251ZM9.83942 18.7247C14.8054 18.7247 18.8312 14.699 18.8312 9.73297C18.8312 4.76696 14.8054 0.741211 9.83942 0.741211C4.87341 0.741211 0.847656 4.76696 0.847656 9.73297C0.847656 14.699 4.87341 18.7247 9.83942 18.7247Z" fill="url(#paint1_linear_410_110)" fill-opacity="0.5"/>
</g>
<defs>
<linearGradient id="paint0_linear_410_110" x1="9.83942" y1="0.741211" x2="10.2676" y2="30.2856" gradientUnits="userSpaceOnUse">
<stop stop-color="white"/>
<stop offset="1" stop-color="white" stop-opacity="0"/>
</linearGradient>
<linearGradient id="paint1_linear_410_110" x1="9.83942" y1="0.741211" x2="10.0392" y2="22.5213" gradientUnits="userSpaceOnUse">
<stop stop-color="white"/>
<stop offset="0.413266" stop-color="white" stop-opacity="0.586734"/>
<stop offset="1" stop-color="white" stop-opacity="0"/>
</linearGradient>
</defs>
</svg>
