<svg width="25" height="25" viewBox="0 0 25 25" fill="none" xmlns="http://www.w3.org/2000/svg">
<g id="Symbol">
<path id="Vector" d="M5.33247 1.2814C5.20819 1.07855 5.14604 0.977126 5.18914 0.900184C5.23223 0.823242 5.35118 0.823242 5.58908 0.823242H10.1984C10.4497 0.824373 10.6962 0.888342 10.9131 1.00871C11.1301 1.12908 11.3098 1.3016 11.4342 1.5089L18.0804 12.5365C18.1053 12.5756 18.1185 12.6204 18.1185 12.6661C18.1185 12.7119 18.1053 12.7567 18.0804 12.7958L11.5314 23.6256C11.3758 23.8914 11.1484 24.113 10.8726 24.2675C10.5968 24.422 10.2826 24.5039 9.96239 24.5046H5.58783C5.35041 24.5046 5.23171 24.5046 5.18859 24.4278C5.14546 24.351 5.20728 24.2497 5.33091 24.047L12.0988 12.9517C12.1921 12.7988 12.2387 12.7223 12.2386 12.6376C12.2386 12.5529 12.1918 12.4766 12.0982 12.3238L5.33247 1.2814Z" fill="white"/>
<path id="Vector_2" d="M14.6983 3.92693C14.6367 3.82667 14.7089 3.69775 14.8265 3.69775H18.4732C18.6616 3.70023 18.8462 3.74938 19.0085 3.84034C19.1709 3.9313 19.3054 4.06092 19.3988 4.21639L24.4298 12.5673C24.4501 12.6007 24.4608 12.6386 24.4608 12.6772C24.4608 12.7158 24.4501 12.7537 24.4298 12.7871L19.496 20.9753C19.3747 21.1732 19.2012 21.3376 18.9926 21.4524C18.7841 21.5672 18.5476 21.6285 18.3065 21.6302H14.8258C14.7083 21.6302 14.6362 21.5016 14.6974 21.4013L19.9508 12.7993C20.0097 12.7028 20.0096 12.5814 19.9504 12.485L14.6983 3.92693Z" fill="white"/>
<path id="Vector_3" d="M0.52624 3.92688C0.464761 3.82662 0.536905 3.69775 0.654513 3.69775H4.30128C4.48996 3.69935 4.67486 3.74813 4.83736 3.83918C4.99987 3.93022 5.13424 4.06033 5.22694 4.21639L10.2625 12.5673C10.2828 12.6007 10.2935 12.6386 10.2935 12.6772C10.2935 12.7158 10.2828 12.7537 10.2625 12.7871L5.31951 20.9753C5.19995 21.1756 5.02622 21.3419 4.81628 21.4571C4.60635 21.5722 4.36783 21.632 4.12541 21.6302H0.653827C0.536366 21.6302 0.464199 21.5017 0.525381 21.4014L5.77439 12.7992C5.83325 12.7027 5.83311 12.5814 5.77405 12.4851L0.52624 3.92688Z" fill="white"/>
</g>
</svg>
